<svg width="30" height="30" viewBox="0 0 30 30" fill="none" xmlns="http://www.w3.org/2000/svg">
<path d="M27.0319 24.2132L26.3561 20.5523C26.3038 20.2687 26.0839 20.0457 25.8013 19.9891L20.4863 18.9262C20.2553 18.8801 20.0165 18.9523 19.8498 19.1189L17.6675 21.3013C13.9894 19.6595 11.9569 17.6229 10.1666 13.7871L12.3422 11.6116C12.5087 11.445 12.581 11.2061 12.535 10.9751L11.472 5.65998C11.4154 5.37724 11.1925 5.15751 10.9089 5.10522L7.24811 4.42951C7.15407 4.41194 7.05739 4.41413 6.96413 4.43531C6.00613 4.65293 5.13197 5.13571 4.43622 5.83154C3.23177 7.03609 2.77166 8.79601 3.106 10.9208C3.25823 11.8881 3.48446 12.8903 3.77845 13.8996C3.88743 14.2734 4.27916 14.4875 4.65217 14.3791C5.02588 14.2702 5.24051 13.8791 5.1317 13.5054C4.85432 12.5533 4.64127 11.61 4.49836 10.7016C4.23328 9.01652 4.54767 7.71328 5.43299 6.82796C5.90769 6.35318 6.49594 6.01445 7.14141 5.8428L10.1838 6.4045L11.0793 10.8817L8.82434 13.1365C8.61788 13.343 8.56014 13.6554 8.67914 13.9221C10.729 18.5127 13.1338 20.9156 17.5517 22.7876C17.8163 22.8996 18.122 22.84 18.325 22.637L20.5798 20.3821L25.0569 21.2775L25.6187 24.32C25.447 24.9653 25.1082 25.5536 24.6336 26.0284C23.748 26.9135 22.4445 27.228 20.7596 26.9627C17.3911 26.4328 12.7185 24.7974 9.7072 21.7979L9.66378 21.7546C8.27854 20.3638 7.04376 18.4455 6.09323 16.207C5.941 15.8488 5.52739 15.6819 5.16914 15.8339C4.8109 15.986 4.64382 16.3997 4.79596 16.7579C5.81628 19.1603 7.15433 21.2321 8.66798 22.7521L8.71158 22.7954C11.9628 26.0338 16.9538 27.7907 20.5405 28.355C20.9907 28.4258 21.4242 28.461 21.8398 28.461C23.3859 28.461 24.6803 27.974 25.6298 27.0247C26.3256 26.3289 26.8084 25.4547 27.026 24.4969C27.0473 24.4038 27.0493 24.3072 27.0319 24.2132Z" fill="white"/>
<path d="M17.2333 9.01318C16.844 9.01318 16.5286 9.32862 16.5286 9.71789C16.5286 10.1072 16.844 10.4226 17.2333 10.4226C18.9171 10.4226 20.2869 11.7924 20.2869 13.4762C20.2869 13.8602 20.6076 14.1809 20.9916 14.1809C21.3756 14.1809 21.6963 13.8602 21.6963 13.4762C21.6963 11.0153 19.6941 9.01318 17.2333 9.01318Z" fill="white"/>
<path d="M17.2335 6.00659C16.9572 6.00659 16.6782 6.02188 16.4045 6.05203C16.0177 6.09475 15.7388 6.44297 15.7814 6.82978C15.8241 7.21649 16.1721 7.49449 16.5591 7.45292C16.7818 7.42831 17.0085 7.41583 17.2334 7.41583C20.575 7.41583 23.2937 10.1345 23.2937 13.4761C23.2937 13.7011 23.2812 13.9279 23.2566 14.1504C23.214 14.5373 23.493 14.8856 23.8798 14.9283C24.2615 14.9695 24.6154 14.6875 24.6576 14.3051C24.6877 14.0314 24.703 13.7524 24.703 13.4761C24.7032 9.35742 21.3523 6.00659 17.2335 6.00659Z" fill="white"/>
<path d="M17.2334 3C16.9659 3 16.6952 3.01028 16.4285 3.03041C16.0405 3.05985 15.7496 3.39823 15.7792 3.78636C15.8087 4.17448 16.1454 4.46461 16.5351 4.43569C16.7663 4.41812 17.0014 4.40933 17.2335 4.40933C22.233 4.40933 26.3004 8.47673 26.3004 13.4762C26.3004 14.1836 26.2187 14.8877 26.0578 15.5692C25.9705 15.9383 26.2016 16.319 26.5684 16.4136C26.9454 16.5108 27.3399 16.2717 27.4292 15.8933C27.6153 15.1058 27.7096 14.2927 27.7096 13.4762C27.7097 7.69969 23.01 3 17.2334 3Z" fill="white"/>
</svg>
