<svg width="28" height="30" viewBox="0 0 28 30" fill="none" xmlns="http://www.w3.org/2000/svg">
<path d="M26.7978 28.9888H25.9551V2.52809C25.9551 2.24877 25.7287 2.02248 25.4495 2.02248H16.0113C15.732 2.02248 15.5057 2.24877 15.5057 2.52809V4.71908H14.4945V2.52809C14.4945 2.24877 14.268 2.02248 13.9888 2.02248H11.7978V0.505605C11.7978 0.226289 11.5714 0 11.2922 0C11.013 0 10.7866 0.226289 10.7866 0.505605V2.02248H8.59559C8.31633 2.02248 8.08998 2.24877 8.08998 2.52809V4.71908H6.57311C6.29385 4.71908 6.0675 4.94537 6.0675 5.22469V9.43816H1.85402C1.57477 9.43816 1.34842 9.66445 1.34842 9.94377V28.9887H0.505605C0.226348 28.9887 0 29.215 0 29.4943C0 29.7737 0.226406 30 0.505605 30H26.7978C27.0771 30 27.3034 29.7737 27.3034 29.4944C27.3034 29.2151 27.077 28.9888 26.7978 28.9888ZM9.10113 3.03369H13.4831V4.71908H9.10113V3.03369ZM7.41574 28.9888H7.07865V28.1461C7.07865 27.8668 6.85225 27.6405 6.57305 27.6405C6.29385 27.6405 6.06744 27.8668 6.06744 28.1461V28.9888H5.73035V27.3034H7.41574V28.9888ZM10.7865 16.0112V16.881V28.9888H8.42695V26.7978C8.42695 26.5185 8.20055 26.2922 7.92135 26.2922H5.22475C4.94549 26.2922 4.71914 26.5185 4.71914 26.7978V28.9888H2.35957V10.4494H10.7865V16.0112ZM11.2921 9.43822H7.07865V5.73035H15.5056V15.5056H11.7978V13.8202H13.3147C13.5939 13.8202 13.8203 13.5939 13.8203 13.3146C13.8203 13.0353 13.5939 12.809 13.3147 12.809H11.7978V11.1236H13.3147C13.5939 11.1236 13.8203 10.8973 13.8203 10.618C13.8203 10.3387 13.5939 10.1124 13.3147 10.1124H11.7978V9.94389C11.7978 9.66451 11.5714 9.43822 11.2921 9.43822ZM20.2247 28.9888H11.7978V16.881V16.5169H20.2247V28.9888ZM24.9438 28.9888H21.236V16.0112V15.337C21.236 15.0577 21.0096 14.8314 20.7304 14.8314C20.4512 14.8314 20.2247 15.0577 20.2247 15.337V15.5055H19.2135V15.337C19.2135 15.0577 18.9871 14.8314 18.7079 14.8314C18.4287 14.8314 18.2023 15.0577 18.2023 15.337V15.5055H16.5169V5.22475V3.03369H24.9439V28.9888H24.9438Z" fill="white"/>
<path d="M13.988 27.9777C14.2673 27.9777 14.4936 27.7513 14.4936 27.4721V18.0339C14.4936 17.7546 14.2672 17.5283 13.988 17.5283C13.7088 17.5283 13.4824 17.7546 13.4824 18.0339V27.4721C13.4824 27.7513 13.7088 27.9777 13.988 27.9777Z" fill="white"/>
<path d="M16.0112 27.9777C16.2905 27.9777 16.5168 27.7513 16.5168 27.4721V18.0339C16.5168 17.7546 16.2904 17.5283 16.0112 17.5283C15.732 17.5283 15.5056 17.7546 15.5056 18.0339V27.4721C15.5056 27.7513 15.732 27.9777 16.0112 27.9777Z" fill="white"/>
<path d="M18.0329 27.9777C18.3122 27.9777 18.5386 27.7513 18.5386 27.4721V18.0339C18.5386 17.7546 18.3121 17.5283 18.0329 17.5283C17.7537 17.5283 17.5273 17.7546 17.5273 18.0339V27.4721C17.5273 27.7513 17.7537 27.9777 18.0329 27.9777Z" fill="white"/>
<path d="M18.7087 6.40457C18.988 6.40457 19.2143 6.17828 19.2143 5.89897V5.22484C19.2143 4.94553 18.9879 4.71924 18.7087 4.71924C18.4295 4.71924 18.2031 4.94553 18.2031 5.22484V5.89902C18.2031 6.17828 18.4295 6.40457 18.7087 6.40457Z" fill="white"/>
<path d="M20.7305 6.40445C21.0097 6.40445 21.2361 6.17816 21.2361 5.89884V5.22472C21.2361 4.94541 21.0097 4.71912 20.7305 4.71912C20.4513 4.71912 20.2249 4.94541 20.2249 5.22472V5.8989C20.2249 6.17816 20.4512 6.40445 20.7305 6.40445Z" fill="white"/>
<path d="M22.7537 6.40457C23.0329 6.40457 23.2593 6.17828 23.2593 5.89897V5.22484C23.2593 4.94553 23.0329 4.71924 22.7537 4.71924C22.4745 4.71924 22.248 4.94553 22.248 5.22484V5.89902C22.248 6.17828 22.4744 6.40457 22.7537 6.40457Z" fill="white"/>
<path d="M18.7087 9.77523C18.988 9.77523 19.2143 9.54895 19.2143 9.26963V8.59545C19.2143 8.31613 18.9879 8.08984 18.7087 8.08984C18.4295 8.08984 18.2031 8.31613 18.2031 8.59545V9.26963C18.2031 9.54895 18.4295 9.77523 18.7087 9.77523Z" fill="white"/>
<path d="M20.7305 9.77523C21.0097 9.77523 21.2361 9.54895 21.2361 9.26963V8.59545C21.2361 8.31613 21.0097 8.08984 20.7305 8.08984C20.4513 8.08984 20.2249 8.31613 20.2249 8.59545V9.26963C20.2249 9.54895 20.4512 9.77523 20.7305 9.77523Z" fill="white"/>
<path d="M22.7537 9.77523C23.0329 9.77523 23.2593 9.54895 23.2593 9.26963V8.59545C23.2593 8.31613 23.0329 8.08984 22.7537 8.08984C22.4745 8.08984 22.248 8.31613 22.248 8.59545V9.26963C22.248 9.54895 22.4744 9.77523 22.7537 9.77523Z" fill="white"/>
<path d="M18.7087 13.1461C18.988 13.1461 19.2143 12.9198 19.2143 12.6405V11.9663C19.2143 11.687 18.9879 11.4607 18.7087 11.4607C18.4295 11.4607 18.2031 11.687 18.2031 11.9663V12.6405C18.2031 12.9197 18.4295 13.1461 18.7087 13.1461Z" fill="white"/>
<path d="M20.7305 13.1461C21.0097 13.1461 21.2361 12.9198 21.2361 12.6405V11.9663C21.2361 11.687 21.0097 11.4607 20.7305 11.4607C20.4513 11.4607 20.2249 11.687 20.2249 11.9663V12.6405C20.2249 12.9197 20.4512 13.1461 20.7305 13.1461Z" fill="white"/>
<path d="M22.7537 13.1461C23.0329 13.1461 23.2593 12.9198 23.2593 12.6405V11.9663C23.2593 11.687 23.0329 11.4607 22.7537 11.4607C22.4745 11.4607 22.248 11.687 22.248 11.9663V12.6405C22.248 12.9197 22.4744 13.1461 22.7537 13.1461Z" fill="white"/>
<path d="M4.55053 14.4944C4.82979 14.4944 5.05613 14.2681 5.05613 13.9887V13.3146C5.05613 13.0352 4.82973 12.809 4.55053 12.809C4.27133 12.809 4.04492 13.0352 4.04492 13.3146V13.9887C4.04492 14.268 4.27133 14.4944 4.55053 14.4944Z" fill="white"/>
<path d="M6.57396 14.4945C6.85322 14.4945 7.07957 14.2682 7.07957 13.9889V13.3147C7.07957 13.0354 6.85316 12.8091 6.57396 12.8091C6.29477 12.8091 6.06836 13.0354 6.06836 13.3147V13.9889C6.06836 14.2681 6.29471 14.4945 6.57396 14.4945Z" fill="white"/>
<path d="M8.59545 14.4944C8.87471 14.4944 9.10106 14.2681 9.10106 13.9887V13.3146C9.10106 13.0352 8.87465 12.809 8.59545 12.809C8.31625 12.809 8.08984 13.0352 8.08984 13.3146V13.9887C8.08984 14.268 8.31619 14.4944 8.59545 14.4944Z" fill="white"/>
<path d="M4.55053 17.8652C4.82979 17.8652 5.05613 17.6389 5.05613 17.3596V16.6854C5.05613 16.4061 4.82973 16.1798 4.55053 16.1798C4.27133 16.1798 4.04492 16.4061 4.04492 16.6854V17.3596C4.04492 17.6389 4.27133 17.8652 4.55053 17.8652Z" fill="white"/>
<path d="M6.57396 17.8651C6.85322 17.8651 7.07957 17.6388 7.07957 17.3595V16.6853C7.07957 16.406 6.85316 16.1797 6.57396 16.1797C6.29477 16.1797 6.06836 16.406 6.06836 16.6853V17.3595C6.06836 17.6387 6.29471 17.8651 6.57396 17.8651Z" fill="white"/>
<path d="M8.59545 17.8652C8.87471 17.8652 9.10106 17.6389 9.10106 17.3596V16.6854C9.10106 16.4061 8.87465 16.1798 8.59545 16.1798C8.31625 16.1798 8.08984 16.4061 8.08984 16.6854V17.3596C8.08984 17.6389 8.31619 17.8652 8.59545 17.8652Z" fill="white"/>
<path d="M4.55053 21.2359C4.82979 21.2359 5.05613 21.0096 5.05613 20.7303V20.0561C5.05613 19.7768 4.82973 19.5505 4.55053 19.5505C4.27133 19.5505 4.04492 19.7768 4.04492 20.0561V20.7303C4.04492 21.0096 4.27133 21.2359 4.55053 21.2359Z" fill="white"/>
<path d="M6.57396 21.2359C6.85322 21.2359 7.07957 21.0096 7.07957 20.7303V20.0561C7.07957 19.7768 6.85316 19.5505 6.57396 19.5505C6.29477 19.5505 6.06836 19.7768 6.06836 20.0561V20.7303C6.06836 21.0096 6.29471 21.2359 6.57396 21.2359Z" fill="white"/>
<path d="M8.59545 21.2359C8.87471 21.2359 9.10106 21.0096 9.10106 20.7303V20.0561C9.10106 19.7768 8.87465 19.5505 8.59545 19.5505C8.31625 19.5505 8.08984 19.7768 8.08984 20.0561V20.7303C8.08984 21.0096 8.31619 21.2359 8.59545 21.2359Z" fill="white"/>
<path d="M4.55053 24.6068C4.82979 24.6068 5.05613 24.3805 5.05613 24.1012V23.427C5.05613 23.1477 4.82973 22.9214 4.55053 22.9214C4.27133 22.9214 4.04492 23.1477 4.04492 23.427V24.1012C4.04492 24.3805 4.27133 24.6068 4.55053 24.6068Z" fill="white"/>
<path d="M6.57396 24.6068C6.85322 24.6068 7.07957 24.3805 7.07957 24.1012V23.427C7.07957 23.1477 6.85316 22.9214 6.57396 22.9214C6.29477 22.9214 6.06836 23.1477 6.06836 23.427V24.1012C6.06836 24.3805 6.29471 24.6068 6.57396 24.6068Z" fill="white"/>
<path d="M8.59545 24.6068C8.87471 24.6068 9.10106 24.3805 9.10106 24.1012V23.427C9.10106 23.1477 8.87465 22.9214 8.59545 22.9214C8.31625 22.9214 8.08984 23.1477 8.08984 23.427V24.1012C8.08984 24.3805 8.31619 24.6068 8.59545 24.6068Z" fill="white"/>
<path d="M22.7537 16.5169C23.0329 16.5169 23.2593 16.2906 23.2593 16.0113V15.3371C23.2593 15.0578 23.0329 14.8315 22.7537 14.8315C22.4745 14.8315 22.248 15.0578 22.248 15.3371V16.0113C22.248 16.2906 22.4744 16.5169 22.7537 16.5169Z" fill="white"/>
<path d="M22.7537 19.8875C23.0329 19.8875 23.2593 19.6612 23.2593 19.3819V18.7078C23.2593 18.4284 23.0329 18.2021 22.7537 18.2021C22.4745 18.2021 22.248 18.4284 22.248 18.7078V19.3819C22.248 19.6612 22.4744 19.8875 22.7537 19.8875Z" fill="white"/>
<path d="M22.7537 23.2584C23.0329 23.2584 23.2593 23.0321 23.2593 22.7528V22.0786C23.2593 21.7993 23.0329 21.573 22.7537 21.573C22.4745 21.573 22.248 21.7993 22.248 22.0786V22.7528C22.248 23.032 22.4744 23.2584 22.7537 23.2584Z" fill="white"/>
<path d="M22.7537 26.6292C23.0329 26.6292 23.2593 26.4029 23.2593 26.1236V25.4495C23.2593 25.1701 23.0329 24.9438 22.7537 24.9438C22.4745 24.9438 22.248 25.1701 22.248 25.4495V26.1236C22.248 26.4029 22.4744 26.6292 22.7537 26.6292Z" fill="white"/>
<path d="M13.8198 7.92138C13.8198 7.64206 13.5934 7.41577 13.3142 7.41577H9.26928C8.99002 7.41577 8.76367 7.64206 8.76367 7.92138C8.76367 8.20069 8.99008 8.42698 9.26928 8.42698H13.3142C13.5935 8.42698 13.8198 8.20069 13.8198 7.92138Z" fill="white"/>
</svg>
