<svg width="30" height="30" viewBox="0 0 30 30" fill="none" xmlns="http://www.w3.org/2000/svg">
<path d="M27.1875 24.375V8.90625C27.1875 7.61391 26.1361 6.5625 24.8438 6.5625H18.2573C18.0145 2.90391 14.9691 0 11.25 0C7.53094 0 4.48547 2.90391 4.24266 6.5625H4.21875C2.92641 6.5625 1.875 7.61391 1.875 8.90625V24.375H0V26.7188C0 28.0111 1.05141 29.0625 2.34375 29.0625H26.7188C28.0111 29.0625 29.0625 28.0111 29.0625 26.7188V24.375H27.1875ZM24.375 13.4508C23.4412 12.1223 21.9 11.25 20.1562 11.25C17.3133 11.25 15 13.5633 15 16.4062C15 19.2492 17.3133 21.5625 20.1562 21.5625C21.9 21.5625 23.4412 20.6902 24.375 19.3617V22.5H12.4575C12.5864 22.0448 12.6562 21.5747 12.6562 21.0938C12.6562 18.2508 10.343 15.9375 7.5 15.9375C6.48562 15.9375 5.51719 16.2305 4.6875 16.7728V9.53484C5.69953 12.1777 8.25562 14.0625 11.25 14.0625C14.3044 14.0625 16.9027 12.1012 17.8711 9.375H24.375V13.4508ZM24.375 16.4062C24.375 18.7322 22.4827 20.625 20.1562 20.625C17.8298 20.625 15.9375 18.7322 15.9375 16.4062C15.9375 14.0803 17.8298 12.1875 20.1562 12.1875C22.4827 12.1875 24.375 14.0803 24.375 16.4062ZM7.96875 19.6875C8.2275 19.6875 8.4375 19.898 8.4375 20.1562C8.4375 20.4145 8.2275 20.625 7.96875 20.625H6.5625V19.6875H7.96875ZM7.96875 21.5625C8.2275 21.5625 8.4375 21.773 8.4375 22.0312C8.4375 22.2895 8.2275 22.5 7.96875 22.5H6.5625V21.5625H7.96875ZM9.01594 21.0938C9.23906 20.8448 9.375 20.5163 9.375 20.1562C9.375 19.3809 8.74406 18.75 7.96875 18.75V17.8125H7.03125V18.75H5.625V22.5H4.6875V17.9555C5.46234 17.2598 6.45047 16.875 7.5 16.875C9.82641 16.875 11.7188 18.7678 11.7188 21.0938C11.7188 21.5784 11.633 22.0495 11.4736 22.5H9.28875C9.34125 22.3528 9.375 22.1963 9.375 22.0312C9.375 21.6712 9.23906 21.3427 9.01594 21.0938ZM11.25 0.9375C14.61 0.9375 17.3438 3.67125 17.3438 7.03125C17.3438 10.3912 14.61 13.125 11.25 13.125C7.89 13.125 5.15625 10.3912 5.15625 7.03125C5.15625 3.67125 7.89 0.9375 11.25 0.9375ZM2.8125 8.90625C2.8125 8.13094 3.44344 7.5 4.21875 7.5H4.24266C4.26516 7.83844 4.30594 8.17172 4.37437 8.49516C4.01156 8.625 3.75 8.96813 3.75 9.375V22.5C3.75 23.017 4.17047 23.4375 4.6875 23.4375H5.625H7.96875H24.375C24.892 23.4375 25.3125 23.017 25.3125 22.5V9.375C25.3125 8.85797 24.892 8.4375 24.375 8.4375H18.1397C18.202 8.13234 18.2367 7.81781 18.2578 7.5H24.8438C25.6191 7.5 26.25 8.13094 26.25 8.90625V24.375H2.8125V8.90625ZM11.25 25.3125H17.8125V25.7812C17.8125 26.0395 17.6025 26.25 17.3438 26.25H11.7188C11.46 26.25 11.25 26.0395 11.25 25.7812V25.3125ZM28.125 26.7188C28.125 27.4941 27.4941 28.125 26.7188 28.125H2.34375C1.56844 28.125 0.9375 27.4941 0.9375 26.7188V25.3125H10.3125V25.7812C10.3125 26.5566 10.9434 27.1875 11.7188 27.1875H17.3438C18.1191 27.1875 18.75 26.5566 18.75 25.7812V25.3125H28.125V26.7188Z" fill="white"/>
</svg>
